<?xml version="1.0" standalone="no"?>
<!DOCTYPE svg PUBLIC "-//W3C//DTD SVG 20010904//EN"
 "http://www.w3.org/TR/2001/REC-SVG-20010904/DTD/svg10.dtd">
<svg version="1.0" xmlns="http://www.w3.org/2000/svg"
 width="360.000000pt" height="360.000000pt" viewBox="0 0 360.000000 360.000000"
 preserveAspectRatio="xMidYMid meet">

<g transform="translate(0.000000,360.000000) scale(0.100000,-0.100000)"
fill="#000000" stroke="none">
<path d="M1895 3225 c-38 -8 -180 -37 -315 -65 -135 -28 -290 -59 -345 -70
-55 -11 -199 -40 -320 -65 -121 -25 -254 -52 -295 -60 -41 -8 -87 -20 -102
-26 l-28 -11 1 -767 c1 -825 10 -1365 21 -1377 8 -7 169 -51 428 -114 91 -22
181 -45 200 -50 19 -6 148 -37 285 -71 429 -103 459 -110 495 -121 19 -6 43
-14 52 -19 9 -5 19 -5 21 -1 3 6 1 2802 -2 2825 -1 9 -9 8 -96 -8z m-780
-1113 c46 -89 87 -164 90 -165 5 -2 47 74 147 271 l32 62 78 0 c42 0 79 -3 81
-7 3 -5 -51 -100 -119 -213 -68 -113 -123 -210 -124 -217 0 -6 55 -103 121
-215 67 -112 124 -209 126 -215 4 -10 -16 -13 -81 -13 l-86 0 -27 49 c-16 27
-55 103 -88 169 -33 66 -63 121 -68 121 -4 1 -11 -9 -16 -21 -5 -13 -46 -88
-90 -168 l-81 -145 -81 -5 c-57 -3 -83 -1 -86 7 -2 6 12 37 33 70 93 145 224
358 224 365 0 3 -19 37 -42 74 -23 38 -55 94 -71 124 -17 30 -52 91 -79 136
-26 45 -48 86 -48 93 0 8 25 11 86 9 l85 -3 84 -163z"/>
<path d="M2128 2800 l3 -89 112 -3 112 -3 0 -165 0 -165 -115 -3 -115 -3 3
-64 4 -65 114 0 114 0 -2 -167 -3 -168 -112 -3 -111 -3 -4 -60 c-1 -33 -1 -63
1 -65 2 -2 55 -4 118 -4 l114 0 -3 -152 -3 -153 -115 -5 c-63 -3 -114 -8 -112
-12 1 -5 2 -37 2 -73 l0 -65 115 0 115 0 0 -145 0 -145 -114 0 -115 0 -3 -91
c-2 -50 -1 -93 1 -95 2 -2 220 -4 483 -4 l478 0 0 1030 0 1030 -482 0 -483 0
3 -90z m797 -260 l0 -165 -217 -3 -218 -2 0 163 c0 90 3 167 7 171 4 3 102 5
217 4 l211 -3 0 -165z m0 -470 l0 -165 -215 0 -215 0 -3 168 -2 167 217 -2
218 -3 0 -165z m-10 -455 l0 -150 -212 -3 -213 -2 0 155 0 155 213 -2 212 -3
0 -150z m0 -440 l0 -150 -212 -3 -213 -2 0 148 c0 82 3 152 7 156 4 3 99 5
212 4 l206 -3 0 -150z"/>
</g>
</svg>
