<?xml version="1.0" standalone="no"?>
<!DOCTYPE svg PUBLIC "-//W3C//DTD SVG 20010904//EN"
 "http://www.w3.org/TR/2001/REC-SVG-20010904/DTD/svg10.dtd">
<svg version="1.0" xmlns="http://www.w3.org/2000/svg"
 width="1200.000000pt" height="1200.000000pt" viewBox="0 0 1200.000000 1200.000000"
 preserveAspectRatio="xMidYMid meet">

<g transform="translate(0.000000,1200.000000) scale(0.100000,-0.100000)"
fill="#000000" stroke="none">
<path d="M1674 11936 c-181 -30 -337 -97 -506 -217 -286 -204 -450 -478 -488
-815 -8 -71 -10 -697 -8 -2184 l3 -2085 21 -46 c47 -102 140 -161 253 -161
110 -1 204 53 254 147 l22 40 5 2125 c5 2012 7 2128 24 2185 50 166 173 342
276 395 97 49 178 71 285 77 55 3 118 1 140 -5 22 -5 333 -98 690 -206 358
-109 835 -253 1060 -321 1511 -456 5149 -1555 5330 -1610 316 -95 890 -269
1330 -402 209 -63 405 -128 436 -144 160 -85 278 -260 308 -459 9 -56 11 -838
9 -3095 l-3 -3020 -28 -80 c-48 -136 -97 -203 -210 -286 -99 -74 -181 -113
-282 -134 -102 -21 -176 -14 -315 30 -504 161 -934 289 -978 293 -108 8 -203
-55 -255 -168 -61 -134 -22 -275 96 -344 47 -28 923 -311 1092 -353 92 -23
132 -27 245 -28 167 0 237 14 509 103 l204 67 88 84 c158 147 275 327 337 516
61 186 57 -50 57 3340 0 3003 -1 3113 -19 3190 -23 99 -69 232 -106 306 -82
161 -221 328 -365 437 -154 115 -159 117 -1645 567 -756 229 -2399 727 -3650
1107 -1251 379 -2599 788 -2996 908 -396 120 -756 226 -800 235 -105 23 -317
28 -420 11z"/>
<path d="M7370 7899 c-291 -26 -532 -227 -632 -525 l-23 -69 0 -3350 0 -3350
29 -88 c63 -193 195 -351 371 -443 l66 -34 238 0 237 0 80 39 c93 45 186 119
250 199 88 111 164 306 164 421 0 34 3 41 20 41 l20 0 -2 3272 c-3 3087 -4
3276 -21 3333 -32 111 -101 237 -172 313 -167 180 -380 262 -625 241z"/>
<path d="M5152 7071 c-271 -67 -489 -296 -546 -573 -14 -69 -16 -329 -16
-2572 0 -2723 -3 -2561 57 -2718 83 -211 263 -365 487 -413 101 -22 281 -16
372 13 136 43 270 133 360 242 88 107 163 296 164 413 0 41 3 50 20 54 20 5
20 7 17 2492 -2 2363 -3 2489 -20 2546 -80 264 -271 449 -531 515 -102 26
-261 26 -364 1z"/>
<path d="M3041 6269 c-154 -30 -262 -89 -381 -209 -78 -77 -104 -111 -138
-180 -23 -47 -51 -121 -62 -165 -20 -79 -20 -110 -18 -1795 l3 -1715 27 -80
c75 -220 241 -387 457 -460 181 -62 405 -49 566 32 202 103 346 281 403 501
16 62 17 187 17 1762 0 1575 -1 1700 -17 1762 -73 284 -280 484 -560 542 -82
17 -224 19 -297 5z"/>
<path d="M891 5529 c-230 -45 -420 -190 -527 -403 l-44 -88 0 -1111 0 -1111
39 -80 c74 -151 174 -251 326 -326 101 -50 174 -69 295 -77 221 -14 430 71
582 236 79 86 122 157 162 268 l31 88 0 1010 0 1010 -27 80 c-71 207 -233 381
-428 461 -120 48 -290 66 -409 43z"/>
</g>
</svg>
